# xmcd CD database file
#
# Track frame offsets:
#	150
#	14895
#	29714
#	45016
#	58336
#	75595
#	99648
#	112008
#	124062
#	138047
#	151548
#	165207
#	178223
#	195355
#	207504
#	220796
#	234656
#	247160
#	260835
#	274232
#
# Disc length: 3851 seconds
#
# Revision: 0
# Processed by: cddbd v1.5.2PL0 Copyright (c) Steve Scherf et al.
# Submitted via: CDex 1.70beta2
#
DISCID=1f0f0914
DTITLE=Various Artist - Ladies sing Jazz - CD2
DYEAR=1900
DGENRE=Jazz
TTITLE0=The Girl From Ipanema - Astrud Gilberto
TTITLE1=The Way You Look Tonight - Peggy Lee
TTITLE2=Lover Come Back To Me - Billie Holiday
TTITLE3=Little White Lies - Ella Fitzgerald
TTITLE4=Don`t Let Me Be Misunderstood - Nina Simone
TTITLE5=New York State Of Mind - Carmen Mcrae
TTITLE6=I Cant Get Started With You - Dinah Washington
TTITLE7=I Would If I Could - Ruth Brown
TTITLE8=Mood Indigo - Dinah Shore
TTITLE9=I Threw A Kiss In The Ocean - Peggy Lee
TTITLE10=All Of Me - Billie Holiday
TTITLE11=(I Put) A Four Leaf Clover In Your Pocket - Ella Fitzgerald
TTITLE12=You`ll Never Walk Alone - Nina Simone
TTITLE13=You Can Depend On Me - Dinah Washington
TTITLE14=Don`t Worry bout Me - Sarah Vaughan
TTITLE15=The Way You Look Tonight - Billie Holiday
TTITLE16=Can`t Help Lovin That Man - Ella Fitzgerald
TTITLE17=You Go To My Head - Sarah Vaughan
TTITLE18=Everythings Movin` Too Fast - Peggy Lee
TTITLE19=Undecided - Ella Fritzgerald
EXTD=
EXTT0=
EXTT1=
EXTT2=
EXTT3=
EXTT4=
EXTT5=
EXTT6=
EXTT7=
EXTT8=
EXTT9=
EXTT10=
EXTT11=
EXTT12=
EXTT13=
EXTT14=
EXTT15=
EXTT16=
EXTT17=
EXTT18=
EXTT19=
PLAYORDER=
